<mxfile host="Electron" modified="2024-02-04T15:54:03.716Z" agent="Mozilla/5.0 (Windows NT 10.0; Win64; x64) AppleWebKit/537.36 (KHTML, like Gecko) draw.io/23.0.2 Chrome/120.0.6099.109 Electron/28.1.0 Safari/537.36" etag="1ffmJyr8uxrH1CTIymB-" version="23.0.2" type="device">
  <diagram name="Страница — 1" id="4WzPCgB3ij3amgD61G4B">
    <mxGraphModel dx="951" dy="680" grid="1" gridSize="10" guides="1" tooltips="1" connect="1" arrows="1" fold="1" page="1" pageScale="1" pageWidth="827" pageHeight="1169" background="#ffffff" math="0" shadow="0">
      <root>
        <mxCell id="0" />
        <mxCell id="1" parent="0" />
        <mxCell id="A77gi3pMVtknNzmGkMTU-25" value="" style="strokeWidth=2;html=1;shape=mxgraph.flowchart.annotation_2;align=left;labelPosition=right;pointerEvents=1;fillColor=#f5f5f5;strokeColor=#666666;gradientColor=#b3b3b3;gradientDirection=south;direction=west;" parent="1" vertex="1">
          <mxGeometry x="230" y="180" width="50" height="380" as="geometry" />
        </mxCell>
        <mxCell id="A77gi3pMVtknNzmGkMTU-1" value="&lt;font style=&quot;font-size: 25px;&quot;&gt;Source&lt;/font&gt;" style="text;html=1;strokeColor=none;fillColor=none;align=center;verticalAlign=middle;whiteSpace=wrap;rounded=0;fontSize=25;labelBackgroundColor=none;fontColor=#000000;" parent="1" vertex="1">
          <mxGeometry x="80" y="80" width="120" height="40" as="geometry" />
        </mxCell>
        <mxCell id="A77gi3pMVtknNzmGkMTU-2" value="&lt;font style=&quot;font-size: 25px;&quot;&gt;Storage&lt;/font&gt;" style="text;html=1;strokeColor=none;fillColor=none;align=center;verticalAlign=middle;whiteSpace=wrap;rounded=0;labelBackgroundColor=none;fontColor=#000000;fontSize=25;" parent="1" vertex="1">
          <mxGeometry x="354" y="80" width="120" height="40" as="geometry" />
        </mxCell>
        <mxCell id="A77gi3pMVtknNzmGkMTU-3" value="&lt;span style=&quot;font-size: 25px;&quot;&gt;Business&lt;br style=&quot;font-size: 25px;&quot;&gt;&lt;/span&gt;" style="text;html=1;strokeColor=none;fillColor=none;align=center;verticalAlign=middle;whiteSpace=wrap;rounded=0;labelBackgroundColor=none;fontColor=#000000;fontSize=25;" parent="1" vertex="1">
          <mxGeometry x="640" y="80" width="120" height="40" as="geometry" />
        </mxCell>
        <mxCell id="A77gi3pMVtknNzmGkMTU-5" value="" style="shape=cylinder3;whiteSpace=wrap;html=1;boundedLbl=1;backgroundOutline=1;size=15;fillColor=#fff2cc;strokeColor=#d6b656;gradientColor=#ffd966;" parent="1" vertex="1">
          <mxGeometry x="100" y="140" width="80" height="100" as="geometry" />
        </mxCell>
        <mxCell id="A77gi3pMVtknNzmGkMTU-14" value="" style="edgeStyle=orthogonalEdgeStyle;rounded=0;orthogonalLoop=1;jettySize=auto;html=1;" parent="1" source="A77gi3pMVtknNzmGkMTU-6" target="A77gi3pMVtknNzmGkMTU-1" edge="1">
          <mxGeometry relative="1" as="geometry" />
        </mxCell>
        <mxCell id="A77gi3pMVtknNzmGkMTU-6" value="1C" style="text;html=1;strokeColor=none;fillColor=none;align=center;verticalAlign=middle;whiteSpace=wrap;rounded=0;fontSize=15;fontColor=#000000;" parent="1" vertex="1">
          <mxGeometry x="110" y="180" width="60" height="40" as="geometry" />
        </mxCell>
        <mxCell id="A77gi3pMVtknNzmGkMTU-7" value="" style="shape=cylinder3;whiteSpace=wrap;html=1;boundedLbl=1;backgroundOutline=1;size=15;fillColor=#d5e8d4;gradientColor=#97d077;strokeColor=#82b366;" parent="1" vertex="1">
          <mxGeometry x="100" y="275" width="80" height="100" as="geometry" />
        </mxCell>
        <mxCell id="A77gi3pMVtknNzmGkMTU-8" value="Excel" style="text;html=1;strokeColor=none;fillColor=none;align=center;verticalAlign=middle;whiteSpace=wrap;rounded=0;fontSize=15;fontColor=#000000;" parent="1" vertex="1">
          <mxGeometry x="110" y="320" width="60" height="40" as="geometry" />
        </mxCell>
        <mxCell id="A77gi3pMVtknNzmGkMTU-12" style="edgeStyle=orthogonalEdgeStyle;rounded=0;orthogonalLoop=1;jettySize=auto;html=1;exitX=0.5;exitY=1;exitDx=0;exitDy=0;exitPerimeter=0;" parent="1" edge="1">
          <mxGeometry relative="1" as="geometry">
            <mxPoint x="120" y="510" as="targetPoint" />
            <mxPoint x="120" y="490" as="sourcePoint" />
          </mxGeometry>
        </mxCell>
        <mxCell id="A77gi3pMVtknNzmGkMTU-13" value="" style="whiteSpace=wrap;html=1;aspect=fixed;fillColor=#dae8fc;strokeColor=#6c8ebf;fontColor=#000000;" parent="1" vertex="1">
          <mxGeometry x="100" y="410" width="80" height="80" as="geometry" />
        </mxCell>
        <mxCell id="A77gi3pMVtknNzmGkMTU-15" style="edgeStyle=orthogonalEdgeStyle;rounded=0;orthogonalLoop=1;jettySize=auto;html=1;exitX=0.5;exitY=0;exitDx=0;exitDy=0;" parent="1" source="A77gi3pMVtknNzmGkMTU-11" target="A77gi3pMVtknNzmGkMTU-13" edge="1">
          <mxGeometry relative="1" as="geometry" />
        </mxCell>
        <mxCell id="A77gi3pMVtknNzmGkMTU-11" value="&lt;font style=&quot;font-size: 15px;&quot;&gt;CSV&lt;br&gt;/&lt;br&gt;&amp;nbsp;TXT&lt;/font&gt;" style="text;html=1;strokeColor=none;fillColor=none;align=center;verticalAlign=middle;whiteSpace=wrap;rounded=0;fontSize=15;fontColor=#000000;" parent="1" vertex="1">
          <mxGeometry x="105" y="422.5" width="70" height="55" as="geometry" />
        </mxCell>
        <mxCell id="A77gi3pMVtknNzmGkMTU-16" style="edgeStyle=orthogonalEdgeStyle;rounded=0;orthogonalLoop=1;jettySize=auto;html=1;exitX=0.75;exitY=0;exitDx=0;exitDy=0;entryX=1.117;entryY=0.333;entryDx=0;entryDy=0;entryPerimeter=0;" parent="1" source="A77gi3pMVtknNzmGkMTU-11" target="A77gi3pMVtknNzmGkMTU-11" edge="1">
          <mxGeometry relative="1" as="geometry" />
        </mxCell>
        <mxCell id="A77gi3pMVtknNzmGkMTU-17" value="" style="ellipse;whiteSpace=wrap;html=1;fillColor=#fad9d5;strokeColor=#ae4132;" parent="1" vertex="1">
          <mxGeometry x="95" y="520" width="90" height="80" as="geometry" />
        </mxCell>
        <mxCell id="A77gi3pMVtknNzmGkMTU-18" value="Internet" style="text;html=1;strokeColor=none;fillColor=none;align=center;verticalAlign=middle;whiteSpace=wrap;rounded=0;fontColor=#000000;fontSize=15;" parent="1" vertex="1">
          <mxGeometry x="110" y="545" width="60" height="30" as="geometry" />
        </mxCell>
        <mxCell id="A77gi3pMVtknNzmGkMTU-21" value="Выгрузки из разных систем (crm / ерл)" style="text;html=1;strokeColor=none;fillColor=none;align=center;verticalAlign=middle;whiteSpace=wrap;rounded=0;fontColor=#000000;" parent="1" vertex="1">
          <mxGeometry x="20" y="417.5" width="60" height="65" as="geometry" />
        </mxCell>
        <mxCell id="A77gi3pMVtknNzmGkMTU-23" value="" style="shape=cylinder3;whiteSpace=wrap;html=1;boundedLbl=1;backgroundOutline=1;size=15;fillColor=#fa6800;strokeColor=#C73500;fontColor=#000000;" parent="1" vertex="1">
          <mxGeometry x="329.5" y="145" width="181" height="185" as="geometry" />
        </mxCell>
        <mxCell id="A77gi3pMVtknNzmGkMTU-24" value="DWH (Data Vault)&lt;br&gt;&lt;br&gt;Staging&lt;br&gt;Business Layer" style="text;html=1;strokeColor=none;fillColor=none;align=center;verticalAlign=middle;whiteSpace=wrap;rounded=0;fontColor=#FFFFFF;fontSize=15;" parent="1" vertex="1">
          <mxGeometry x="355" y="200" width="130" height="87.5" as="geometry" />
        </mxCell>
        <mxCell id="A77gi3pMVtknNzmGkMTU-29" value="ETL&amp;nbsp;&lt;br style=&quot;font-size: 15px;&quot;&gt;Python" style="text;html=1;strokeColor=none;fillColor=none;align=center;verticalAlign=middle;whiteSpace=wrap;rounded=0;fontColor=#000000;fontSize=15;" parent="1" vertex="1">
          <mxGeometry x="260" y="320" width="60" height="41.25" as="geometry" />
        </mxCell>
        <mxCell id="A77gi3pMVtknNzmGkMTU-32" value="" style="sketch=0;pointerEvents=1;shadow=0;dashed=0;html=1;strokeColor=none;fillColor=#505050;labelPosition=center;verticalLabelPosition=bottom;verticalAlign=top;outlineConnect=0;align=center;shape=mxgraph.office.services.excel_services;" parent="1" vertex="1">
          <mxGeometry x="655" y="170" width="90" height="70" as="geometry" />
        </mxCell>
        <mxCell id="A77gi3pMVtknNzmGkMTU-33" value="Excel" style="text;html=1;strokeColor=none;fillColor=none;align=center;verticalAlign=middle;whiteSpace=wrap;rounded=0;fontColor=#000000;fontSize=15;" parent="1" vertex="1">
          <mxGeometry x="650" y="140" width="100" height="30" as="geometry" />
        </mxCell>
        <mxCell id="A77gi3pMVtknNzmGkMTU-34" value="" style="sketch=0;pointerEvents=1;shadow=0;dashed=0;html=1;strokeColor=none;fillColor=#505050;labelPosition=center;verticalLabelPosition=bottom;verticalAlign=top;outlineConnect=0;align=center;shape=mxgraph.office.servers.monitoring_sql_reporting_services;" parent="1" vertex="1">
          <mxGeometry x="662.5" y="330" width="75" height="80" as="geometry" />
        </mxCell>
        <mxCell id="A77gi3pMVtknNzmGkMTU-35" value="SQL" style="text;html=1;strokeColor=none;fillColor=none;align=center;verticalAlign=middle;whiteSpace=wrap;rounded=0;fontColor=#000000;fontSize=15;" parent="1" vertex="1">
          <mxGeometry x="650" y="302.5" width="100" height="30" as="geometry" />
        </mxCell>
        <mxCell id="A77gi3pMVtknNzmGkMTU-36" value="" style="image;sketch=0;aspect=fixed;html=1;points=[];align=center;fontSize=12;image=img/lib/mscae/Chart.svg;" parent="1" vertex="1">
          <mxGeometry x="663.75" y="505.4" width="72.5" height="69.6" as="geometry" />
        </mxCell>
        <mxCell id="A77gi3pMVtknNzmGkMTU-37" value="BI" style="text;html=1;strokeColor=none;fillColor=none;align=center;verticalAlign=middle;whiteSpace=wrap;rounded=0;fontColor=#000000;fontSize=15;" parent="1" vertex="1">
          <mxGeometry x="650" y="475.4" width="100" height="30" as="geometry" />
        </mxCell>
        <mxCell id="A77gi3pMVtknNzmGkMTU-38" value="" style="strokeWidth=2;html=1;shape=mxgraph.flowchart.annotation_2;align=left;labelPosition=right;pointerEvents=1;fillColor=#f5f5f5;strokeColor=#666666;gradientColor=#b3b3b3;gradientDirection=south;direction=east;" parent="1" vertex="1">
          <mxGeometry x="560" y="180" width="50" height="380" as="geometry" />
        </mxCell>
        <mxCell id="oUQR-3UGVN6cMCqeYVAG-2" value="" style="shape=datastore;whiteSpace=wrap;html=1;fillColor=#b0e3e6;strokeColor=#0e8088;" vertex="1" parent="1">
          <mxGeometry x="330.5" y="410" width="180" height="180" as="geometry" />
        </mxCell>
        <mxCell id="oUQR-3UGVN6cMCqeYVAG-4" value="Data Lake" style="text;html=1;strokeColor=none;fillColor=none;align=center;verticalAlign=middle;whiteSpace=wrap;rounded=0;fontColor=#000000;fontSize=15;" vertex="1" parent="1">
          <mxGeometry x="370" y="505.4" width="100" height="30" as="geometry" />
        </mxCell>
        <mxCell id="oUQR-3UGVN6cMCqeYVAG-5" value="" style="shape=doubleArrow;direction=south;whiteSpace=wrap;html=1;fillColor=#f5f5f5;gradientColor=#b3b3b3;strokeColor=#666666;" vertex="1" parent="1">
          <mxGeometry x="391" y="340" width="60" height="60" as="geometry" />
        </mxCell>
      </root>
    </mxGraphModel>
  </diagram>
</mxfile>
